<svg xmlns="http://www.w3.org/2000/svg"><style>:root svg:not(:target){display:none}</style><svg viewBox="0 0 67 50" fill="none" id="cat-gain-icon"><defs><clipPath id="cat-gain-icon_0"><rect rx="0" width="66" height="27" transform="translate(.5 11.5)" fill="#fff" fill-opacity="0"></rect></clipPath></defs><circle cx="33" cy="25" r="25" fill="#68B738"></circle><rect rx="0" width="66" height="27" transform="translate(.5 11.5)"></rect><g clip-path="url(#cat-gain-icon_0)"><path d="M60.55 13.87a7.83 7.83 0 0 1 2.25-2.3c.5-.35.8-.35 1.1.3.4.95.75 1.95.45 3-.05.18-.06.37-.03.55.04.19.12.36.23.5.3.4.55.8.8 1.15a3.1 3.1 0 0 1 .45 3.1c-.18.5-.21 1.04-.1 1.55.1.5.1 1.01 0 1.5a1.88 1.88 0 0 1-1.35 1.6c-.64.13-1.21.48-1.6 1a.5.5 0 0 1-.19.19.58.58 0 0 1-.26.06c-.6.1-2.1-1.25-2.1-1.85v-.3c.05-1.8-.05-1.95-1.7-2.7a2.16 2.16 0 0 1-.9-.6c-.3-.4-.7-.35-1.15-.2-.45.15-.7.45-.65.95.15 1.21.21 2.43.15 3.65.01.14.04.28.1.4 1.55 2.25 2.15 4.9 2.9 7.45.6 1.95 1.7 3 3.7 3.15.32.03.64.08.95.15.41.07.8.26 1.1.54.3.29.51.66.6 1.06.35 1.05.15 1.3-.9 1.3h-3.25c-.42.02-.83-.12-1.15-.4a6.04 6.04 0 0 0-1.7-1 3.63 3.63 0 0 1-1.7-1.3 14.2 14.2 0 0 0-2-2.25c-1.4-1.45-2.9-2.85-4.2-4.35a5.67 5.67 0 0 1-1.6-3.8c0-.45-.1-.65-.6-.45a.89.89 0 0 1-.5.15c-1.4 0-2.1.85-2.6 2.1-.45 1.05-1.05 2.05-1.6 3.1a5.3 5.3 0 0 0-.5 2.1c0 1.2.3 1.6 1.4 2 .7.25 1.35.5 1.7 1.2.4.8.3 1-.55 1.05h-3.4a.92.92 0 0 1-.56-.12.96.96 0 0 1-.39-.43l-.9-1.5a3.08 3.08 0 0 1-.35-2.7c.22-.86.24-1.77.05-2.65a4.23 4.23 0 0 1 .85-3.5c.3-.35.3-.5-.2-.6a24.88 24.88 0 0 1-5.9-2.05l-.03-.01-.02-.04c-1.6-.6-1.9-.5-2.35 1.15-.4 1.4-.8 2.8-1.1 4.25-.35 1.6.05 3.1.55 4.6.2.6.8.55 1.25.7 1 .3 1.85.7 2.25 1.75.35.8.3.9-.55.9-.85 0-1.7-.05-2.6 0-.76.02-1.5-.23-2.1-.7-2.4-1.6-3.1-4.05-3.3-6.7-.1-1.65-1-2.95-2.05-4.2-.2-.25-.4-.35-.7-.15-1.07.6-2.19 1.1-3.35 1.5a13.43 13.43 0 0 0-6.1 4.4 5.45 5.45 0 0 0-1.1 2.55c-.15.9.1 1.3 1 1.55s1.35.75 1.45 1.7c.05.4-.1.6-.5.6h-4.05a.83.83 0 0 1-.65-.4 4.33 4.33 0 0 1-.95-2.75c-.02-1.72.13-3.45.45-5.15a3.2 3.2 0 0 1 1.7-2.4c2.95-1.4 4.5-4.05 5.9-6.8.3-.55.05-.65-.45-.6-1.4.2-2.72.75-3.85 1.6a36 36 0 0 0-4.15 3.55 8.25 8.25 0 0 1-5.15 2.45c-3.65.2-5.35-1.85-5.2-5.15.04-1.12.46-2.2 1.2-3.05.26-.33.61-.58 1.01-.71a2.1 2.1 0 0 1 1.24-.04c.75.2.95.6.65 1.35-.15.3-.35.55-.5.85-.21.31-.38.65-.5 1-.55 1.5.2 2.55 1.75 2.7 1.65.15 3-.55 4.25-1.55 1.51-1.2 2.85-2.6 4-4.15a10.56 10.56 0 0 1 3.18-2.77 10.59 10.59 0 0 1 4.02-1.28c1.15-.15 2.15-.65 3.25-.95 2.06-.62 4.2-.93 6.35-.9 1 .04 1.99-.14 2.9-.55 2.45-1 5-1 7.55-.5 2 .4 4 .9 5.95 1.4a8.1 8.1 0 0 0 3.5-.1c2.2-.55 4.44-.89 6.7-1a9.08 9.08 0 0 1 4.3.85c1 .45 1 .45.75 1.4Z" fill="#000"></path></g></svg><svg viewBox="0 0 50 53" fill="none" id="cat-slim-icon"><defs><clipPath id="cat-slim-icon_0"><rect rx="0" width="35" height="49" transform="translate(7.5 .5)" fill="#fff" fill-opacity="0"></rect></clipPath></defs><circle cx="25" cy="28" r="25" fill="#68B738"></circle><rect rx="0" width="35" height="49" transform="translate(7.5 .5)"></rect><g clip-path="url(#cat-slim-icon_0)"><path d="M35.2 0h-.2c-.33.18-.59.47-.75.81a7.95 7.95 0 0 0-.66 1.76.87.87 0 0 1-.26.48.86.86 0 0 1-.5.21c-.57.1-1.11.33-1.57.67-.47.33-.85.77-1.12 1.28-.37.66-.69 1.35-.95 2.06-.73 1.9-1.29 3.86-1.98 5.77-.33.87-.34.87-1.32.87-1.17 0-1.09-.18-1.1 1.11 0 .41.12.61.55.59.14 0 .34-.06.39.11.05.18-.12.25-.23.36a4.7 4.7 0 0 1-2.22 1.26c-.98.26-1.98.46-2.93.78-2.44.82-4.7 1.97-6.46 3.91a14.48 14.48 0 0 0-2.44 4.04c-1.88 4.45-2.8 9.14-3.51 13.88a99.44 99.44 0 0 0-.75 6.7c-.09 1.1-.19 2.22-.19 3.35h17.14c.02-.23-.02-.46-.12-.66a2.48 2.48 0 0 0-.78-1.05 2.53 2.53 0 0 0-1.19-.54c-.36-.08-.4-.19-.18-.47.36-.48.64-1.02.82-1.6.83-2.48 1.16-5.07 1.56-7.63.23-1.96.83-3.85 1.77-5.58a11.17 11.17 0 0 1 2.88-3.28c.43-.33.44-.33.51.22.05.37.06.74.09 1.12.15 2.43.12 4.87-.09 7.31-.2 1.88-.22 3.78-.08 5.67.2 2.19.6 4.36 1.17 6.49h6.84a2.81 2.81 0 0 0-2.18-2.29 4.53 4.53 0 0 0-1.94.1c-.31.07-.43 0-.46-.34-.21-2.72-.04-5.47.52-8.15a92.5 92.5 0 0 0 1.57-9.37c.13-1.27.53-2.5 1.17-3.61.61-1.09 1.15-2.23 1.75-3.32a3.06 3.06 0 0 0 .22-2.68c-.14-.37-.28-.74-.45-1.09-.51-1-1.02-2-1.5-3.01-.25-.52-.19-.58.37-.6.84 0 .84 0 .85-.84v-.34c0-.36-.13-.55-.51-.52h-.79c-.35 0-.45-.15-.37-.51a3.22 3.22 0 0 1 2.64-2.29 11.5 11.5 0 0 1 3.41.23c.13.04.27.03.39-.04a.5.5 0 0 0 .25-.29c.21-.52.43-1.03.66-1.55.06-.09.08-.2.07-.3a.5.5 0 0 0-.12-.29c-1.64-2.09-3.43-4.04-5.86-5.3a.76.76 0 0 1-.45-.57c-.14-.74-.36-1.46-.66-2.15a1.74 1.74 0 0 0-.72-.88Z" fill="#000"></path></g></svg><svg viewBox="0 0 111.426 231.26" fill="none" id="eating-background"><path d="M24.6 224.28q12.38 6.98 30.83 6.98 20.17 0 32.48-8.28 3.7-2.49 6.8-5.58 7.19-7.19 11.11-17.66 5.6-14.97 5.6-35.14 0-15.38-3.96-27-3.9-11.62-11.08-19.14-2.64-2.82-5.72-5.01-5.22-3.72-11.71-5.65 8.28-2.52 14.68-7.46 5.07-3.92 8.97-9.36 8.82-12.3 8.82-32.74 0-18.25-6.15-31.24-3.35-7.1-8.53-12.4-4.35-4.45-10-7.63-12.3-6.97-31.03-6.97-18.46 0-30.97 6.97-6.11 3.42-10.7 8.28-4.76 5.03-7.89 11.61-6.15 12.85-6.15 31.04v7.58h29.66v-4.78q.55-15.93 5.61-26.12 1.26-2.56 3.17-4.48 5.73-5.77 17.27-5.77 12.75 0 18.5 6.35 1.19 1.3 2.07 2.88 5.2 9.23 5.2 24.68 0 18.18-7.04 26.04-6.97 7.8-22.9 8.34h-3.97v30.01h2.05q1.3 0 2.19.28 12.32.81 19.1 7.36 2.28 2.21 3.94 5.08 6.63 11.34 6.63 29.25 0 12.31-1.98 21.88-1.99 9.5-7.59 14.7-5.54 5.12-16.48 5.12-10.39 0-15.85-4.71-.42-.37-.82-.76-4.75-4.65-6.7-12.16-2.12-8.14-2.4-18.19v-5.05h-29.66v7.58q0 17.91 6.15 31.11 3.45 7.36 8.84 12.81 4.21 4.26 9.61 7.35Z" fill="#F2F2F2" fill-rule="evenodd"></path></svg><svg viewBox="0 0 60 60" fill="none" id="eating-icon"><path fill="#68B738" d="M0 0h60v60h-60z"></path><rect rx="0" width="24" height="29" transform="translate(18 15.5)"></rect><path d="M36.11 15.07a1 1 0 0 1 1.09.22c.91.91 2.1 2.88 3.06 5.92a42.6 42.6 0 0 1 1.74 12.79 1 1 0 0 1-1 1h-3.5v9a1 1 0 0 1-1 1 1 1 0 0 1-1-1v-28a1 1 0 0 1 .61-.93Zm1.39 17.93h2.49a39.57 39.57 0 0 0-1.64-11.19c-.27-.88-.57-1.64-.85-2.3v13.49Zm-18.5-18a1 1 0 0 1 1 1v5.5a2.93 2.93 0 0 0 2.5 2.9v-8.4c0-.56.44-1 1-1a1 1 0 0 1 1 1v8.4a2.93 2.93 0 0 0 2.5-2.9v-5.5c0-.56.44-1 1-1a1 1 0 0 1 1 1v5.5c0 .94-.31 2.18-1.18 3.2a5.08 5.08 0 0 1-3.32 1.73v17.57a1 1 0 0 1-1 1 1 1 0 0 1-1-1v-17.57a5.08 5.08 0 0 1-3.33-1.73 5.02 5.02 0 0 1-1.17-3.2v-5.5c0-.56.44-1 1-1Z" fill="#FFF" fill-rule="evenodd"></path></svg><svg viewBox="0 0 78 81" fill="none" id="gift-icon"><path d="M64.02 35.63h-49.99a3.18 3.18 0 0 1-3.18-3.16v-9.47a3.18 3.18 0 0 1 3.18-3.16h49.98a3.17 3.17 0 0 1 3.19 3.16v9.47a3.17 3.17 0 0 1-3.18 3.16Zm-49.99-13.37c-.4 0-.74.34-.74.74v9.47c0 .4.33.74.74.74h49.98c.41 0 .75-.33.75-.74v-9.47c0-.4-.34-.74-.75-.74h-49.98Z" fill="#fff"></path><path d="M57.04 68.08h-36.04a6.11 6.11 0 0 1-6.13-6.09v-27.57c0-.67.55-1.21 1.22-1.21.68 0 1.22.54 1.22 1.21v27.57a3.68 3.68 0 0 0 3.69 3.67h36.04a3.68 3.68 0 0 0 3.7-3.67v-27.57a1.22 1.22 0 0 1 2.44 0v27.57a6.11 6.11 0 0 1-6.14 6.1Z" fill="#fff"></path><path d="M39.02 68.08c-.67 0-1.22-.54-1.22-1.2v-32.46c0-.67.55-1.21 1.22-1.21.68 0 1.22.54 1.22 1.21v32.45c0 .67-.54 1.21-1.22 1.21Zm-15.21-45.82a7.81 7.81 0 0 1-3.17-10.6 7.9 7.9 0 0 1 10.66-3.16c5.82 3.13 8.96 11.86 9.09 12.23l-2.3.8c-.03-.08-2.96-8.22-7.95-10.9a5.45 5.45 0 0 0-7.36 2.17 5.4 5.4 0 0 0 2.2 7.33l-1.17 2.13Z" fill="#fff"></path><path d="m54.23 22.26-1.16-2.14a5.38 5.38 0 0 0-1.03-9.92 5.42 5.42 0 0 0-4.14.43c-4.98 2.68-7.91 10.82-7.94 10.9l-2.3-.8c.13-.37 3.27-9.1 9.08-12.23a7.86 7.86 0 0 1 11.29 9.1c-.6 2-1.95 3.66-3.8 4.66Zm7.72 29.6h-45.86c-.67 0-1.22-.55-1.22-1.21 0-.67.55-1.22 1.22-1.22h45.86a1.21 1.21 0 1 1 0 2.42Z" fill="#fff"></path></svg><svg viewBox="0 0 69.453 226.816" fill="none" id="natural-background"><path d="M39.44 39.23v187.58h30.01v-226.81h-22.7l-.22.29q-4.17 5.42-10.03 9.55-6.02 4.17-12.58 6.97-6.56 2.8-12.85 4.79-6.29 1.91-11.07 3.07v22.63q.27 0 6.15-1.09 5.88-1.1 13.4-2.46 7.58-1.44 13.6-2.81 6.01-1.43 6.29-1.71Z" fill="#F2F2F2" fill-rule="evenodd"></path></svg><svg viewBox="0 0 60 60" fill="none" id="natural-icon"><defs><clipPath id="natural-icon_0"><rect rx="0" width="29" height="31" transform="translate(15.5 14.5)" fill="#fff" fill-opacity="0"></rect></clipPath></defs><path fill="#68B738" d="M0 0h60v60h-60z"></path><rect rx="0" width="29" height="31" transform="translate(15.5 14.5)"></rect><g clip-path="url(#natural-icon_0)"><path d="M623.43 151.99h24.38v18h-13.13m-7.5 0h-3.75v-14m11.25 14.01-7.5 6v-6" stroke="#FFF" stroke-width="2" stroke-linejoin="round" stroke-linecap="round"></path><path d="M42.84 16.76a.95.95 0 0 0-.91-.76h-.01c-4.94.03-16.94.91-21.79 8.38-2.52 3.87-2.74 8.91-.65 14.96.02.05.05.08.08.12-.75 1.97-1.04 3.29-1.05 3.33-.11.54.22 1.07.72 1.18a.7.7 0 0 0 .2.03c.43 0 .82-.33.91-.79.02-.11 2.41-10.38 10.86-16.38.43-.31.55-.93.26-1.39a.9.9 0 0 0-1.3-.28c-4.79 3.41-7.74 8.01-9.48 11.66-1.24-4.58-.91-8.38.99-11.31 3.74-5.76 12.62-7.15 17.98-7.44-1.15 1.8-2.41 5.1-2.41 10.93 0 3.12-.83 5.52-2.46 7.14-2.63 2.59-6.88 2.83-10 2.58-.52-.05-.96.37-1 .92-.04.55.34 1.03.86 1.07.62.05 1.29.09 1.98.09 3.17 0 6.87-.67 9.43-3.2 2.03-2.01 3.07-4.9 3.07-8.6 0-9.1 3.21-11.1 3.23-11.11.39-.21.59-.68.49-1.13Z" fill="#FFF"></path></g></svg><svg viewBox="0 0 30 30" fill="none" id="plus"><path stroke="#D3D3D3" stroke-width="2" d="M15 0v30m15-15h-30"></path></svg><svg viewBox="0 0 112.246 228.73" fill="none" id="powder-background"><path d="M0 207.47v21.26h106.98v-25.23h-71.71l52.09-79.5q6.7-10.05 12.3-19.55 5.61-9.57 9.1-20.44 3.48-10.94 3.48-25.5 0-27.48-13.47-43-1.62-1.88-3.45-3.53-13.27-11.98-37.36-11.98-20.16 0-32.33 8.13-3.84 2.54-7.01 5.75-6.88 6.95-10.63 17.01-5.47 14.7-5.47 35.14v7.86h29.95v-7.59q0-10.87 2.25-20.37 2.26-9.57 8.14-15.45.7-.7 1.48-1.33 5.67-4.55 14.99-4.55 8.82 0 13.92 4.36 2.21 1.89 3.72 4.6 5.06 8.95 5.06 24.68 0 12.58-3.49 22.21-1.66 4.6-3.78 8.99-2.32 4.8-5.18 9.33-5.46 8.69-11.89 18.8l-57.69 89.9Z" fill="#F2F2F2" fill-rule="evenodd"></path></svg><svg viewBox="0 0 60 60" fill="none" id="powder-icon"><path fill="#68B738" d="M0 0h60v60h-60z"></path><path d="M28.37 16c-1.63 0-2.9 1.35-2.9 3.08 0 1.72 1.27 3.08 2.9 3.08s2.9-1.36 2.9-3.08c0-1.73-1.27-3.08-2.9-3.08Zm0 1.17c1 0 1.72.85 1.72 1.91 0 .99-.79 1.9-1.72 1.9-1 0-1.72-.84-1.72-1.9 0-1 .78-1.91 1.72-1.91Zm-10.87 23.57c0 1.17.4 2.17 1.35 2.99 1 .85 2.18.78 2.18.78h19.03a3.4 3.4 0 0 0 2.63-1.45c.84-1 .79-2.36.79-2.36v-17.22c0-.43-.11-.6-.75-.6-.63 0-.68.27-.68.59v17.22a2.5 2.5 0 0 1-.75 1.72c-.73.63-1.45.55-1.45.55s-18.12 0-19.03-.03a2.14 2.14 0 0 1-1.45-.91c-.51-.72-.41-1.63-.41-1.63v-17.22c0-.46-.23-.63-.72-.63s-.74.17-.74.58v17.62Zm16.31-16.32c-1.09.24-2.18.38-4.26 2.36-2.09 1.99-3.63 1.9-5.17 1.81-1.54-.09-3.17-1.54-3.44-1.9-.34-.35-.91-.12-1.09.12-.15.23-.15.64.11.99 1.27 1.18 2.45 2.09 4.71 2.27a7.48 7.48 0 0 0 5.89-2.27c1.45-1.45 2.18-1.72 3.27-1.9a6.3 6.3 0 0 1 5.07 1.27c1 1.09 1.27.78 1.54.47.55-.72-.23-1.27-1.09-1.9a7.22 7.22 0 0 0-5.52-1.27l-.02-.05Zm-9.06 7.16c-1.18 0-2.09 1-2.09 2.27s.91 2.26 2.09 2.26c1.17 0 2.08-.99 2.08-2.26 0-1.27-.91-2.27-2.08-2.27Zm11.78.78c-1.54 0-2.81 1.36-2.81 2.99 0 1.63 1.27 2.99 2.81 2.99s2.81-1.36 2.81-2.99c0-1.63-1.27-2.99-2.81-2.99Zm0 1.45c.79 0 1.45.7 1.45 1.54a1.5 1.5 0 0 1-1.45 1.54c-.8 0-1.45-.69-1.45-1.54 0-.86.65-1.54 1.45-1.54Z" fill="#FFF"></path></svg><svg viewBox="0 0 119.834 226.816" fill="none" id="scales-background"><path d="M65.76 166.04v60.77h28.57v-60.77h25.5v-26.59h-25.5v-139.45h-35.27l-59.06 134.66v31.38h65.76Zm0-26.59h-36.92l36.92-103.02v103.02Z" fill="#F2F2F2" fill-rule="evenodd"></path></svg><svg viewBox="0 0 60 60" fill="none" id="scales-icon"><path fill="#68B738" d="M0 0h60v60h-60z"></path><path d="M23.12 15c-1.07 0-1.07 1.58 0 1.58h6.66v1.6a13.22 13.22 0 0 0-12.22 13.3c0 4.01 1.75 7.63 4.51 10.07.48.42.54 1.17.11 1.63l-1.54 1.56c-.75.68.36 1.75 1.04 1l2-2.04c.35-.34.88-.42 1.31-.21a12.85 12.85 0 0 0 11.11.06c.42-.21.96-.12 1.3.22l1.94 1.97c.68.63 1.67-.32 1.05-1l-1.45-1.48c-.45-.46-.39-1.2.1-1.64a13.38 13.38 0 0 0 4.61-10.15c0-7.07-5.43-12.88-12.27-13.29v-1.6h6.67c1.07 0 1.07-1.58 0-1.58h-14.93Zm-4.12 16.47a11.7 11.7 0 0 1 11.6-11.82c6.4 0 11.6 5.29 11.6 11.82 0 6.54-5.2 11.84-11.6 11.84-6.4 0-11.6-5.3-11.6-11.84Zm10.79-8.1c0-1.09 1.67-1.09 1.67 0v8.64c0 .22-.09.44-.25.6a.9.9 0 0 1-.61.24.83.83 0 0 1-.57-.23.84.84 0 0 1-.24-.56v-8.69Zm-4.99 2.62a1.15 1.15 0 1 0 0-2.3 1.2 1.2 0 0 0-.75.37c-.19.21-.3.49-.3.78 0 .28.11.56.3.77.2.21.46.34.75.37v.01Zm11.6 0a1.15 1.15 0 1 0 0-2.3c-.29.03-.56.16-.75.37-.2.21-.3.49-.3.78 0 .28.1.56.3.77.19.21.46.34.75.37v.01Zm-10.44 12.59c0 1.53-2.32 1.53-2.32 0s2.32-1.53 2.32 0Zm4.64 3.44c.17.02.33 0 .48-.05.16-.05.3-.13.42-.24a1.19 1.19 0 0 0 .38-.85c0-.16-.04-.32-.1-.47a1.29 1.29 0 0 0-.28-.38 1.27 1.27 0 0 0-.9-.3c-.28.03-.55.16-.75.38a1.14 1.14 0 0 0 .75 1.91Zm-8.11-10.38c.01.16-.01.32-.06.47a1.14 1.14 0 0 1-.63.69c-.15.07-.31.1-.47.1a1.1 1.1 0 0 1-.47-.1 1.14 1.14 0 0 1-.63-.69c-.06-.15-.07-.31-.06-.47a1.17 1.17 0 0 1 2.32 0Zm17.38 1.15c.17.01.33 0 .48-.05.16-.05.3-.14.42-.24.12-.11.21-.24.28-.39.06-.15.1-.31.1-.47 0-.16-.04-.31-.1-.46a1.21 1.21 0 0 0-.28-.39 1.1 1.1 0 0 0-.42-.24c-.15-.05-.31-.07-.48-.05a1.17 1.17 0 0 0-1.05 1.14 1.17 1.17 0 0 0 1.05 1.15Zm-2.31 5.8c0 1.52-2.33 1.52-2.33-.01s2.33-1.53 2.33 0v.01Z" fill="#FFF"></path></svg><svg viewBox="0 0 20 18" fill="none" id="telegram-icon"><path fill-rule="evenodd" clip-rule="evenodd" d="M19.46.15c.18.15.27.38.23.61l-2.63 15.76a.66.66 0 0 1-1.01.44l-7.88-5.25a.66.66 0 0 1-.15-.96l2.61-3.26-4.36 2.9a.66.66 0 0 1-.65.05l-5.26-2.63a.66.66 0 0 1 .08-1.2l18.38-6.57a.66.66 0 0 1 .64.11Zm-17.13 7.17 3.53 1.77 7.56-5.04a.66.66 0 0 1 .88.96l-4.8 6 6.43 4.3 2.28-13.66-15.88 5.67Z" fill="#666"></path></svg><svg viewBox="0 0 27 17" fill="none" id="vk-icon"><path d="M0 2.34c0-.86.52-1.32 1.55-1.38l3.97.02c.26 0 .44.13.53.38.4 1.26.86 2.34 1.37 3.25.5.92 1.17 1.97 1.99 3.16.07.15.18.23.34.23.13 0 .22-.06.3-.18l.07-.28.03-4.35c0-.3-.07-.5-.23-.6-.15-.1-.43-.18-.83-.23-.32-.05-.48-.23-.48-.55 0-.07 0-.12.02-.15.38-1.09 1.44-1.63 3.2-1.63l1.5-.03c.67 0 1.23.16 1.67.48.44.32.67.82.67 1.5v5.72c.12.08.24.12.34.12.27 0 .5-.15.7-.45 1.95-2.58 3-4.31 3.17-5.18a.3.3 0 0 1 .05-.13c.12-.25.33-.47.61-.65.29-.19.53-.31.75-.38a.55.55 0 0 1 .24-.05h4.13l.26.03c.36 0 .63.16.83.47.07.1.12.21.15.33a2.4 2.4 0 0 1 .06.55v.18a6.11 6.11 0 0 1-.94 2.2 23.4 23.4 0 0 1-1.93 2.53c-.79.9-1.27 1.5-1.47 1.78a.93.93 0 0 0-.24.56c0 .13.07.28.21.45l3.9 4.63c.2.26.31.56.31.88 0 .38-.16.7-.48.95-.32.25-.7.4-1.14.43l-.46.02h-4.04c-.02 0-.06 0-.11.02a.86.86 0 0 1-.1.01c-.4 0-.76-.16-1.1-.48-.12-.13-.96-1.12-2.5-2.97a1.39 1.39 0 0 0-.38-.32 38.47 38.47 0 0 0-.53 2.24l-.08.42a1.4 1.4 0 0 1-1.12 1.06l-.37.02h-2.61c-1.48 0-2.95-.63-4.41-1.9a19.3 19.3 0 0 1-3.96-4.95 47.51 47.51 0 0 1-3.28-7.05 1.92 1.92 0 0 1-.13-.73Zm16.01 6.51c-.37 0-.7-.1-1.01-.29a.9.9 0 0 1-.45-.79v-5.78c0-.34-.1-.58-.27-.72-.18-.14-.49-.21-.93-.21l-1.52.05c-.76 0-1.34.12-1.73.37.78.36 1.17.93 1.17 1.71v4.43a1.5 1.5 0 0 1-.53 1.04 1.6 1.6 0 0 1-1.07.42c-.53 0-.94-.24-1.22-.73a26.16 26.16 0 0 1-3.1-5.63l-.23-.66-3.55-.02c-.23 0-.36.01-.38.03-.03.03-.04.1-.04.22 0 .15.01.3.05.48l.56 1.4c1.49 3.64 3.11 6.51 4.86 8.6 1.75 2.1 3.47 3.15 5.16 3.15h2.66c.1 0 .19-.03.24-.09.05-.06.1-.17.13-.34l.06-.25.5-2.21c.15-.3.27-.5.38-.6.2-.2.42-.28.69-.28.43 0 .86.24 1.3.73l2.27 2.71c.14.22.3.33.45.33h4.4c.53 0 .8-.13.8-.38a.47.47 0 0 0-.08-.25l-3.87-4.55c-.3-.35-.45-.73-.45-1.13 0-.4.14-.8.43-1.16.23-.34.68-.9 1.34-1.67.67-.78 1.25-1.51 1.75-2.19.5-.68.82-1.3.98-1.85l.08-.33a.37.37 0 0 1-.02-.16.54.54 0 0 0-.03-.19h-4.18c-.27.1-.48.25-.64.45l-.16.48c-.45 1.16-1.6 2.94-3.5 5.36-.36.33-.8.5-1.3.5Z" fill="#666"></path></svg><svg viewBox="0 0 24 19" fill="none" id="youtube-icon"><path d="m15.85 8.8-5.24-3.5a.65.65 0 0 0-1.01.55v6.98a.65.65 0 0 0 1.01.54l5.24-3.49a.65.65 0 0 0 0-1.09Zm-4.94 2.8v-4.53l3.4 2.27-3.4 2.27Zm12.48-8.56a2.4 2.4 0 0 0-1.45-1.63c-3.72-1.43-9.69-1.41-9.94-1.41s-6.22-.02-9.94 1.4a2.4 2.4 0 0 0-1.45 1.64 25.32 25.32 0 0 0-.61 6.3c0 3.26.33 5.22.61 6.3a2.4 2.4 0 0 0 1.45 1.63c3.72 1.43 9.69 1.4 9.94 1.4h.08c.75 0 6.31-.04 9.86-1.4a2.4 2.4 0 0 0 1.45-1.64c.28-1.07.61-3.03.61-6.3 0-3.25-.33-5.22-.61-6.29Zm-1.27 12.27a1.1 1.1 0 0 1-.65.74c-3.5 1.34-9.4 1.32-9.47 1.32-.07 0-5.98.02-9.47-1.32a1.09 1.09 0 0 1-.65-.74c-.27-1-.57-2.85-.57-5.97 0-3.12.3-4.97.57-5.97a1.1 1.1 0 0 1 .65-.74c3.5-1.34 9.4-1.32 9.47-1.32.07 0 5.98-.02 9.47 1.32a1.1 1.1 0 0 1 .65.74c.27 1 .57 2.85.57 5.97 0 3.12-.3 4.96-.57 5.97Z" fill="#666"></path></svg></svg>